<?xml version="1.0" standalone="no"?><!DOCTYPE svg PUBLIC "-//W3C//DTD SVG 1.1//EN" "http://www.w3.org/Graphics/SVG/1.1/DTD/svg11.dtd"><svg t="1666862386269" class="icon" viewBox="0 0 1024 1024" version="1.1" xmlns="http://www.w3.org/2000/svg" p-id="6861" data-spm-anchor-id="a313x.7781069.0.i0" xmlns:xlink="http://www.w3.org/1999/xlink" width="200" height="200"><path d="M298.666667 85.333333a42.666667 42.666667 0 0 0-42.666667-42.666666H213.333333a42.666667 42.666667 0 0 0 0 85.333333h42.666667a42.666667 42.666667 0 0 0 42.666667-42.666667zM170.666667 256a42.666667 42.666667 0 0 0 42.666666 42.666667h42.666667a42.666667 42.666667 0 0 0 0-85.333334H213.333333a42.666667 42.666667 0 0 0-42.666666 42.666667zM170.666667 426.666667a42.666667 42.666667 0 0 0 42.666666 42.666666h42.666667a42.666667 42.666667 0 0 0 0-85.333333H213.333333a42.666667 42.666667 0 0 0-42.666666 42.666667zM725.333333 725.333333a170.666667 170.666667 0 0 1-341.333333 0h341.333333z m-170.666666 298.666667c164.693333 0 298.666667-133.973333 298.666666-298.666667a299.648 299.648 0 0 0-128-244.821333V170.666667c0-94.122667-76.544-170.666667-170.666666-170.666667S384 76.544 384 170.666667v309.845333A299.648 299.648 0 0 0 256 725.333333c0 164.693333 133.973333 298.666667 298.666667 298.666667z" fill="#13B7F9" p-id="6862" data-spm-anchor-id="a313x.7781069.0.i1" class="selected"></path></svg>