<?xml version="1.0" standalone="no"?><!DOCTYPE svg PUBLIC "-//W3C//DTD SVG 1.1//EN" "http://www.w3.org/Graphics/SVG/1.1/DTD/svg11.dtd"><svg t="1666862424246" class="icon" viewBox="0 0 1024 1024" version="1.1" xmlns="http://www.w3.org/2000/svg" p-id="6861" xmlns:xlink="http://www.w3.org/1999/xlink" width="200" height="200"><path d="M389.504 573.013333c22.528 0 40.832 18.304 40.832 40.832 0 79.445333 80.853333 81.664 81.664 81.664a40.832 40.832 0 0 1 0 81.664c-63.146667 0-163.328-44.373333-163.328-163.328 0-22.528 18.304-40.832 40.832-40.832zM512 981.333333c180.650667 0 367.488-137.429333 367.488-367.488 0-215.978667-324.693333-545.621333-338.474667-559.616a42.112 42.112 0 0 0-58.026666 0c-13.781333 13.994667-338.474667 343.637333-338.474667 559.616C144.512 843.904 331.392 981.333333 512 981.333333z" fill="#13B7F9" p-id="6862"></path></svg>