<?xml version="1.0" standalone="no"?><!DOCTYPE svg PUBLIC "-//W3C//DTD SVG 1.1//EN" "http://www.w3.org/Graphics/SVG/1.1/DTD/svg11.dtd"><svg t="1662110031688" class="icon" viewBox="0 0 1024 1024" version="1.1" xmlns="http://www.w3.org/2000/svg" p-id="8789" xmlns:xlink="http://www.w3.org/1999/xlink" width="200" height="200"><path d="M384 466.464a213.312 213.312 0 1 0 426.56 5.76 213.312 213.312 0 0 0-426.56-5.76z" fill="#13B7F9" fill-opacity=".5" p-id="8790"></path><path d="M746.496 525.536a199.936 199.936 0 0 1 137.92 65.44 209.472 209.472 0 0 1 54.208 145.376 209.088 209.088 0 0 1-60.16 142.912 199.488 199.488 0 0 1-140.48 59.392h-389.76a307.424 307.424 0 0 1-162.08-50.784 317.76 317.76 0 0 1-112.384-129.984 326.72 326.72 0 0 1-29.568-170.912 324.48 324.48 0 0 1 61.952-161.6 313.472 313.472 0 0 1 135.2-104.704 305.824 305.824 0 0 1 168.704-17.056 309.696 309.696 0 0 1 152.608 75.616 320.96 320.96 0 0 1 91.584 146.08h83.648l8.608 0.224z" fill="#13B7F9" p-id="8791"></path><path d="M611.264 209.472a28.48 28.48 0 0 1-19.776-7.904 26.496 26.496 0 0 1-8.192-19.072V112.32c0-7.168 2.944-14.016 8.192-19.072a28.48 28.48 0 0 1 19.776-7.904 28.48 28.48 0 0 1 19.744 7.904 26.528 26.528 0 0 1 8.224 19.072v70.176a26.112 26.112 0 0 1-8.192 19.072 28.064 28.064 0 0 1-19.776 7.904z m190.432 76.096a28.704 28.704 0 0 1-15.552-4.544 27.2 27.2 0 0 1-10.304-12.096 26.08 26.08 0 0 1 6.08-29.44l51.456-49.6a28.544 28.544 0 0 1 19.808-7.936c7.424 0 14.528 2.848 19.776 7.904a26.528 26.528 0 0 1 8.192 19.104 26.528 26.528 0 0 1-8.192 19.072l-51.424 49.632a28 28 0 0 1-19.84 7.904z m-380.896 0a28.8 28.8 0 0 1-19.84-7.904l-51.424-49.6a26.56 26.56 0 0 1-8.192-19.104 26.56 26.56 0 0 1 8.192-19.104 28.544 28.544 0 0 1 19.776-7.904c7.424 0 14.56 2.848 19.808 7.904l51.456 49.6a26.08 26.08 0 0 1 6.08 29.44 27.2 27.2 0 0 1-10.336 12.16 28.704 28.704 0 0 1-15.552 4.512z m532.576 183.776h-72.768a28.512 28.512 0 0 1-19.776-7.904 26.56 26.56 0 0 1-8.224-19.104 26.56 26.56 0 0 1 8.224-19.104 28.512 28.512 0 0 1 19.776-7.904h72.768a28.48 28.48 0 0 1 19.776 7.904 26.496 26.496 0 0 1 8.192 19.072 26.496 26.496 0 0 1-8.192 19.104 28.48 28.48 0 0 1-19.776 7.872v0.064z" fill="#13B7F9" fill-opacity=".5" p-id="8792"></path></svg>