<svg width="32" height="32" viewBox="0 0 32 32" fill="none" xmlns="http://www.w3.org/2000/svg">
<path d="M27.7529 20.1468C26.4623 24.0383 22.7871 26.3211 19.5443 25.2455C16.3013 24.17 14.7188 20.1433 16.0095 16.252C16.812 13.8321 20.3425 10.7853 22.8983 8.82692C24.2685 7.77687 26.1953 8.41595 26.6665 10.0767C27.5453 13.1742 28.5555 17.7271 27.7529 20.1468Z" fill="#13B7F9" fill-opacity="0.5"/>
<path fill-rule="evenodd" clip-rule="evenodd" d="M17.4799 27.1015C21.7703 24.9649 23.1699 19.0592 20.6059 13.9108C18.8424 10.3695 12.2909 6.42446 8.37252 4.30654C6.85383 3.48568 5.03569 4.39111 4.77568 6.09775C4.10483 10.5011 3.30559 18.1068 5.06912 21.648C7.63303 26.7964 13.1895 29.238 17.4799 27.1015ZM10.1989 12.0047C9.90924 11.4917 9.2586 11.3107 8.7456 11.6003C8.23261 11.8899 8.05153 12.5406 8.34116 13.0536C8.63423 13.5727 9.13637 14.5229 9.67389 15.5407L9.68847 15.5683L9.68855 15.5684C10.2155 16.5661 10.7712 17.6183 11.1668 18.3308L11.1938 18.3796L9.89848 18.198C9.31509 18.1161 8.77584 18.5228 8.69404 19.1061C8.61225 19.6896 9.01888 20.2288 9.60228 20.3107L12.5329 20.7215C13.2001 21.732 14.1163 22.7221 14.2693 22.8797C14.6799 23.3023 15.3551 23.312 15.7776 22.9016C16.2003 22.4911 16.21 21.8159 15.7995 21.3932C15.646 21.2352 14.6172 20.1092 14.1036 19.2069C13.856 18.7721 13.5852 18.2893 13.3036 17.784L15.03 14.29C15.2909 13.7617 15.0744 13.1221 14.5461 12.8611C14.018 12.6002 13.3784 12.8168 13.1174 13.3449L12.0589 15.4872C11.8964 15.1807 11.73 14.8657 11.565 14.5532L11.5648 14.5529L11.5595 14.5428C11.0301 13.5404 10.5104 12.5566 10.1989 12.0047Z" fill="#13B7F9"/>
</svg>
