<?xml version="1.0" standalone="no"?><!DOCTYPE svg PUBLIC "-//W3C//DTD SVG 1.1//EN" "http://www.w3.org/Graphics/SVG/1.1/DTD/svg11.dtd"><svg t="1666862433883" class="icon" viewBox="0 0 1024 1024" version="1.1" xmlns="http://www.w3.org/2000/svg" p-id="6996" xmlns:xlink="http://www.w3.org/1999/xlink" width="200" height="200"><path d="M728.618667 720.896c-94.634667 0-160.64-38.826667-165.034667-41.6-273.493333-173.482667-444.8-4.096-451.968 3.2a27.605333 27.605333 0 0 1-38.613333 0.682667 26.581333 26.581333 0 0 1-1.194667-37.546667c0.085333-0.213333 0.298667-0.341333 0.426667-0.512 1.962667-2.133333 208.469333-209.408 520.277333-11.52 5.674667 3.413333 154.88 89.813333 321.365333-30.421333a27.392 27.392 0 0 1 38.101334 5.930666 26.837333 26.837333 0 0 1-5.546667 37.504c-0.128 0.085333-0.341333 0.170667-0.426667 0.298667-78.72 56.704-154.325333 73.984-217.386666 73.984z m0 149.205333c-94.634667 0-160.64-38.826667-165.034667-41.6-273.493333-173.482667-444.8-4.096-451.968 3.2a27.605333 27.605333 0 0 1-38.613333 0.682667 26.581333 26.581333 0 0 1-1.194667-37.546667c0.085333-0.256 0.298667-0.341333 0.426667-0.554666 1.962667-2.090667 208.469333-209.365333 520.277333-11.562667 5.674667 3.413333 154.88 89.770667 321.365333-30.293333a27.392 27.392 0 0 1 38.101334 5.888 26.837333 26.837333 0 0 1-5.546667 37.504c-0.128 0.085333-0.341333 0.170667-0.426667 0.298666-78.72 56.704-154.325333 73.984-217.386666 73.984z m-576-459.52c31.146667 0 56.490667 25.429333 56.490666 56.746667 0 31.274667-25.301333 56.661333-56.490666 56.661333a56.618667 56.618667 0 0 1-56.533334-56.704c0-31.274667 25.301333-56.704 56.533334-56.704z m125.269333-44.288a27.178667 27.178667 0 0 1 27.306667 27.093334c0 14.933333-12.288 27.008-27.306667 27.008a27.306667 27.306667 0 0 1-27.306667-27.008 27.306667 27.306667 0 0 1 27.306667-27.093334z m557.824-74.581333a27.093333 27.093333 0 0 1 27.306667 27.093333c0 14.933333-12.330667 27.008-27.306667 27.008a27.306667 27.306667 0 0 1-27.306667-27.008 27.349333 27.349333 0 0 1 27.306667-27.093333z m-198.912 19.968a70.229333 70.229333 0 0 1-69.973333-70.186667c1.28-38.826667 33.706667-69.205333 72.362666-68.010666a70.186667 70.186667 0 0 1 67.84 68.010666 70.229333 70.229333 0 0 1-70.229333 70.186667zM328.789333 142.592a78.08 78.08 0 0 1 78.08 77.824 78.08 78.08 0 1 1-156.16 0 77.952 77.952 0 0 1 78.08-77.824z m452.309334 323.925333c31.573333 0 57.301333 25.386667 57.301333 56.704 0 31.274667-25.685333 56.661333-57.301333 56.661334a56.96 56.96 0 0 1-57.173334-56.704c0-31.146667 25.6-56.661333 57.173334-56.661334z m-294.912-108.714666a87.04 87.04 0 0 1 86.826666 87.296 87.210667 87.210667 0 0 1-86.826666 87.210666 87.253333 87.253333 0 0 1 0-174.506666z" fill="#13B7F9" p-id="6997"></path></svg>