<?xml version="1.0" standalone="no"?><!DOCTYPE svg PUBLIC "-//W3C//DTD SVG 1.1//EN" "http://www.w3.org/Graphics/SVG/1.1/DTD/svg11.dtd"><svg t="1666862462688" class="icon" viewBox="0 0 1024 1024" version="1.1" xmlns="http://www.w3.org/2000/svg" p-id="7401" xmlns:xlink="http://www.w3.org/1999/xlink" width="200" height="200"><path d="M42.666667 597.333333h42.666666a42.666667 42.666667 0 1 0 0-85.333333H42.666667a42.666667 42.666667 0 1 0 0 85.333333zM209.365333 191.701333a42.666667 42.666667 0 0 0-60.330666 60.373334l29.866666 29.866666A42.496 42.496 0 0 0 209.066667 294.4a42.624 42.624 0 0 0 30.165333-72.832l-29.866667-29.866667zM554.666667 128V85.333333a42.666667 42.666667 0 1 0-85.333334 0v42.666667a42.666667 42.666667 0 1 0 85.333334 0zM845.098667 281.898667l29.866666-29.866667a42.666667 42.666667 0 0 0-60.330666-60.373333l-29.866667 29.866666a42.666667 42.666667 0 1 0 60.330667 60.373334zM981.333333 512h-42.666666a42.666667 42.666667 0 1 0 0 85.333333h42.666666a42.666667 42.666667 0 1 0 0-85.333333zM213.333333 554.666667a42.666667 42.666667 0 0 0 42.666667 42.666666h512.853333a42.666667 42.666667 0 0 0 41.685334-51.84A299.008 299.008 0 0 0 512 256c-164.650667 0-298.666667 133.973333-298.666667 298.666667zM981.333333 682.666667H42.666667a42.666667 42.666667 0 1 0 0 85.333333h938.666666a42.666667 42.666667 0 1 0 0-85.333333zM896 896a42.666667 42.666667 0 0 0-42.666667-42.666667H170.666667a42.666667 42.666667 0 1 0 0 85.333334h682.666666a42.666667 42.666667 0 0 0 42.666667-42.666667z" fill="#13B7F9" p-id="7402"></path></svg>