<?xml version="1.0" standalone="no"?><!DOCTYPE svg PUBLIC "-//W3C//DTD SVG 1.1//EN" "http://www.w3.org/Graphics/SVG/1.1/DTD/svg11.dtd"><svg t="1666862443152" class="icon" viewBox="0 0 1024 1024" version="1.1" xmlns="http://www.w3.org/2000/svg" p-id="7131" xmlns:xlink="http://www.w3.org/1999/xlink" width="200" height="200"><path d="M85.333333 554.666667c25.6 0 42.666667-17.066667 42.666667-42.666667s-17.066667-42.666667-42.666667-42.666667H42.666667c-25.6 0-42.666667 17.066667-42.666667 42.666667s17.066667 42.666667 42.666667 42.666667h42.666666zM209.066667 149.333333c-17.066667-17.066667-42.666667-17.066667-59.733334 0-17.066667 17.066667-17.066667 42.666667 0 59.733334l29.866667 29.866666c8.533333 8.533333 21.333333 12.8 29.866667 12.8 8.533333 0 21.333333-4.266667 29.866666-12.8 17.066667-17.066667 17.066667-42.666667 0-59.733333l-29.866666-29.866667zM554.666667 85.333333V42.666667c0-25.6-17.066667-42.666667-42.666667-42.666667s-42.666667 17.066667-42.666667 42.666667v42.666666c0 25.6 17.066667 42.666667 42.666667 42.666667s42.666667-17.066667 42.666667-42.666667zM874.666667 149.333333c-17.066667-17.066667-42.666667-17.066667-59.733334 0l-29.866666 29.866667c-17.066667 17.066667-17.066667 42.666667 0 59.733333 8.533333 8.533333 21.333333 12.8 29.866666 12.8 8.533333 0 21.333333-4.266667 29.866667-12.8l29.866667-29.866666c17.066667-17.066667 17.066667-42.666667 0-59.733334zM981.333333 469.333333h-42.666666c-25.6 0-42.666667 17.066667-42.666667 42.666667s17.066667 42.666667 42.666667 42.666667h42.666666c25.6 0 42.666667-17.066667 42.666667-42.666667s-17.066667-42.666667-42.666667-42.666667zM844.8 785.066667c-17.066667-17.066667-42.666667-17.066667-59.733333 0-17.066667 17.066667-17.066667 42.666667 0 59.733333l29.866666 29.866667c8.533333 8.533333 21.333333 12.8 29.866667 12.8 8.533333 0 21.333333-4.266667 29.866667-12.8 17.066667-17.066667 17.066667-42.666667 0-59.733334l-29.866667-29.866666zM469.333333 938.666667v42.666666c0 25.6 17.066667 42.666667 42.666667 42.666667s42.666667-17.066667 42.666667-42.666667v-42.666666c0-25.6-17.066667-42.666667-42.666667-42.666667s-42.666667 17.066667-42.666667 42.666667zM149.333333 874.666667c8.533333 8.533333 21.333333 12.8 29.866667 12.8 8.533333 0 21.333333-4.266667 29.866667-12.8l29.866666-29.866667c17.066667-17.066667 17.066667-42.666667 0-59.733333-17.066667-17.066667-42.666667-17.066667-59.733333 0l-29.866667 29.866666c-17.066667 17.066667-17.066667 42.666667 0 59.733334zM213.333333 512c0 166.4 132.266667 298.666667 298.666667 298.666667s298.666667-132.266667 298.666667-298.666667-132.266667-298.666667-298.666667-298.666667-298.666667 132.266667-298.666667 298.666667z" fill="#13B7F9" p-id="7132"></path></svg>